<mxfile host="app.diagrams.net" modified="2024-06-06T08:13:27.584Z" agent="Mozilla/5.0 (Windows NT 10.0; Win64; x64) AppleWebKit/537.36 (KHTML, like Gecko) Chrome/122.0.0.0 YaBrowser/24.4.0.0 Safari/537.36" etag="6SfpS1NbavkmqBi116J5" version="24.4.14" type="github">
  <diagram name="Page-1" id="b520641d-4fe3-3701-9064-5fc419738815">
    <mxGraphModel dx="1002" dy="575" grid="1" gridSize="10" guides="1" tooltips="1" connect="1" arrows="1" fold="1" page="1" pageScale="1" pageWidth="1100" pageHeight="850" background="none" math="0" shadow="0">
      <root>
        <mxCell id="0" />
        <mxCell id="1" parent="0" />
        <mxCell id="tda2RDWH6qV3lDIiz0vz-5" value="Брейн сторм тезисы&lt;div&gt;&lt;ol&gt;&lt;li&gt;Главная проблема списания ние связано с товаром через&lt;/li&gt;&lt;ol&gt;&lt;li&gt;Шк&lt;/li&gt;&lt;li&gt;Сотрудника&lt;/li&gt;&lt;/ol&gt;&lt;li&gt;Списание не свзано с товаром&lt;/li&gt;&lt;li&gt;&lt;br&gt;&lt;/li&gt;&lt;li&gt;ЗАчем использовать контейнер-якобы через него сможем связать всех кладовщиков кто трогал потеряный товар&lt;/li&gt;&lt;/ol&gt;&lt;div&gt;&lt;br&gt;&lt;/div&gt;&lt;/div&gt;" style="text;html=1;align=center;verticalAlign=middle;whiteSpace=wrap;rounded=0;" vertex="1" parent="1">
          <mxGeometry x="140" y="30" width="350" height="140" as="geometry" />
        </mxCell>
      </root>
    </mxGraphModel>
  </diagram>
</mxfile>
